<?xml version="1.0" ?><svg enable-background="new 0 0 32 32" version="1.1" viewBox="0 0 32 32" xml:space="preserve" xmlns="http://www.w3.org/2000/svg" xmlns:xlink="http://www.w3.org/1999/xlink"><g id="Flat_copy"><g><g><path d="M15.995,31.625C7.38,31.625,0.37,24.615,0.37,16S7.38,0.375,15.995,0.375S31.62,7.385,31.62,16     S24.61,31.625,15.995,31.625z" fill="#FFFFFF"/><path d="M15.995,0.75c8.409,0,15.25,6.841,15.25,15.25s-6.841,15.25-15.25,15.25S0.745,24.409,0.745,16     S7.586,0.75,15.995,0.75 M15.995,0c-8.837,0-16,7.163-16,16c0,8.836,7.163,16,16,16s16-7.164,16-16     C31.995,7.163,24.831,0,15.995,0L15.995,0z" fill="#E5E5E5"/></g></g><path d="M13.099,23.163l0.784-3.334c0,0,0.243-0.952,1.292-0.952c1.047,0,8.298,0.277,9.904-4.842   c0.589-1.871,0.997-6.31-6.324-6.31h-5.287c0,0-1.1-0.05-1.371,1.09L8.64,23.362c0,0-0.148,0.912,0.797,0.912   c0.946,0,2.36,0,2.36,0S12.886,24.333,13.099,23.163z M15.093,14.702l0.702-2.957c0,0,0.224-0.804,0.946-0.922   c0.722-0.12,1.951,0.02,2.268,0.079c2.054,0.376,1.617,2.272,1.617,2.272c-0.407,2.926-5.075,2.519-5.075,2.519   C14.818,15.435,15.093,14.702,15.093,14.702z" fill="#333333"/></g></svg>