<?xml version="1.0" ?><svg enable-background="new 0 0 32 32" version="1.1" viewBox="0 0 32 32" xml:space="preserve" xmlns="http://www.w3.org/2000/svg" xmlns:xlink="http://www.w3.org/1999/xlink"><g id="Flat_copy"><g><g><path d="M16.005,31.62C7.39,31.62,0.38,24.61,0.38,15.995S7.39,0.37,16.005,0.37S31.63,7.38,31.63,15.995     S24.62,31.62,16.005,31.62z" fill="#FFFFFF"/><path d="M16.005,0.745c8.409,0,15.25,6.841,15.25,15.25s-6.841,15.25-15.25,15.25s-15.25-6.841-15.25-15.25     S7.596,0.745,16.005,0.745 M16.005-0.005c-8.837,0-16,7.163-16,16c0,8.836,7.163,16,16,16s16-7.164,16-16     C32.005,7.158,24.842-0.005,16.005-0.005L16.005-0.005z" fill="#E5E5E5"/></g></g><g><polygon fill="#333333" points="14.474,8.898 23.417,7.583 23.417,15.474 14.474,15.474   "/><polygon fill="#333333" points="6.583,10.057 13.422,9.054 13.422,15.474 6.583,15.474   "/><polygon fill="#333333" points="14.474,23.102 23.417,24.417 23.417,16.526 14.474,16.526   "/><polygon fill="#333333" points="6.583,21.943 13.422,22.946 13.422,16.526 6.583,16.526   "/></g></g></svg>